# xmcd CD database file
#
# Track frame offsets:
#	150
#	19240
#	44787
#	58530
#	106270
#	137515
#	191947
#	204747
#	219002
#	236287
#	254560
#
# Disc length: 3714 seconds
#
# Revision: 0
# Processed by: cddbd v1.5.1PL0 Copyright (c) Steve Scherf et al.
# Submitted via: CDex 1.51
#
DISCID=a00e800b
DTITLE=Shelly Manne - THE BEST OF SHELLY MANNE
DYEAR=1900
DGENRE=Jazz
TTITLE0=GET ME TO THE CHURCH ON TIME
TTITLE1=ON THE STREET WHERE YOU LIVE
TTITLE2=I COUL HAVE DANCED ALL NIGHT 
TTITLE3=LOVE FOR SALE
TTITLE4=WHAT'S NEW
TTITLE5=OUR DELIGHT
TTITLE6=GRASSHOPPER
TTITLE7=YOU AND THE NIGHT AND THE MUSIC
TTITLE8=WITH A SONG IN MY HEART
TTITLE9=THE SOUND EFFECTS MANNE
TTITLE10=THE GIRL FRIEND
EXTD=
EXTT0=
EXTT1=
EXTT2=
EXTT3=
EXTT4=
EXTT5=
EXTT6=
EXTT7=
EXTT8=
EXTT9=
EXTT10=
PLAYORDER=
